<svg width="263" height="263" viewBox="0 0 263 263" fill="none" xmlns="http://www.w3.org/2000/svg">
<g opacity="0.06">
<path d="M230.125 49.3125H147.938V32.875C147.938 28.5155 146.206 24.3346 143.123 21.2519C140.04 18.1693 135.859 16.4375 131.5 16.4375H32.875C28.5155 16.4375 24.3346 18.1693 21.2519 21.2519C18.1693 24.3346 16.4375 28.5155 16.4375 32.875V197.25C16.4375 201.609 18.1693 205.79 21.2519 208.873C24.3346 211.956 28.5155 213.688 32.875 213.688H115.062V230.125C115.062 234.484 116.794 238.665 119.877 241.748C122.96 244.831 127.141 246.562 131.5 246.562H230.125C234.484 246.562 238.665 244.831 241.748 241.748C244.831 238.665 246.562 234.484 246.562 230.125V65.75C246.562 61.3905 244.831 57.2096 241.748 54.1269C238.665 51.0443 234.484 49.3125 230.125 49.3125ZM32.875 123.281H83.5847L62.3803 144.568L73.9688 156.156L115.062 115.062L73.9688 73.9688L62.3803 85.5572L83.5847 106.844H32.875V32.875H131.5V197.25H32.875V123.281ZM131.5 230.125V213.688C135.859 213.688 140.04 211.956 143.123 208.873C146.206 205.79 147.938 201.609 147.938 197.25V65.75H230.125V139.719H179.415L200.62 118.432L189.031 106.844L147.938 147.938L189.031 189.031L200.62 177.443L179.415 156.156H230.125V230.125H131.5Z" fill="black"/>
</g>
</svg>
