<svg width="24" height="25" viewBox="0 0 24 25" fill="none" xmlns="http://www.w3.org/2000/svg">
<path d="M20.1339 4.41964H12.9911V2.99107C12.9911 2.61219 12.8406 2.24883 12.5727 1.98092C12.3047 1.71301 11.9414 1.5625 11.5625 1.5625H2.99107C2.61219 1.5625 2.24883 1.71301 1.98092 1.98092C1.71301 2.24883 1.5625 2.61219 1.5625 2.99107V17.2768C1.5625 17.6557 1.71301 18.019 1.98092 18.2869C2.24883 18.5548 2.61219 18.7054 2.99107 18.7054H10.1339V20.1339C10.1339 20.5128 10.2844 20.8762 10.5523 21.1441C10.8203 21.412 11.1836 21.5625 11.5625 21.5625H20.1339C20.5128 21.5625 20.8762 21.412 21.1441 21.1441C21.412 20.8762 21.5625 20.5128 21.5625 20.1339V5.84821C21.5625 5.46933 21.412 5.10597 21.1441 4.83806C20.8762 4.57015 20.5128 4.41964 20.1339 4.41964ZM2.99107 10.8482H7.39821L5.55536 12.6982L6.5625 13.7054L10.1339 10.1339L6.5625 6.5625L5.55536 7.56964L7.39821 9.41964H2.99107V2.99107H11.5625V17.2768H2.99107V10.8482ZM11.5625 20.1339V18.7054C11.9414 18.7054 12.3047 18.5548 12.5727 18.2869C12.8406 18.019 12.9911 17.6557 12.9911 17.2768V5.84821H20.1339V12.2768H15.7268L17.5696 10.4268L16.5625 9.41964L12.9911 12.9911L16.5625 16.5625L17.5696 15.5554L15.7268 13.7054H20.1339V20.1339H11.5625Z" fill="black" fill-opacity="0.5"/>
</svg>
