<svg width="17" height="17" viewBox="0 0 17 17" fill="none" xmlns="http://www.w3.org/2000/svg">
<path d="M15.9349 4.1595L12.9999 1.2095C12.806 1.01653 12.5435 0.908203 12.2699 0.908203C11.9963 0.908203 11.7339 1.01653 11.5399 1.2095L1.13491 11.5995L0.184906 15.6995C0.152134 15.8494 0.153258 16.0047 0.188194 16.1541C0.223131 16.3035 0.290998 16.4432 0.386838 16.563C0.482678 16.6828 0.604069 16.7796 0.742145 16.8465C0.88022 16.9134 1.03149 16.9486 1.18491 16.9495C1.25639 16.9567 1.32842 16.9567 1.39991 16.9495L5.54491 15.9995L15.9349 5.6195C16.1279 5.42555 16.2362 5.16309 16.2362 4.8895C16.2362 4.61591 16.1279 4.35344 15.9349 4.1595ZM5.04491 15.0995L1.15991 15.9145L2.04491 12.1045L9.82991 4.3495L12.8299 7.3495L5.04491 15.0995ZM13.4999 6.6245L10.4999 3.6245L12.2399 1.8945L15.1899 4.8945L13.4999 6.6245Z" fill="#616161"/>
</svg>
