<svg width="22" height="22" viewBox="0 0 22 22" fill="none" xmlns="http://www.w3.org/2000/svg">
<path d="M10.9995 17.4684L10.7355 17.2484C5.05953 12.6284 3.51953 11.0004 3.51953 8.36039C3.51953 6.16039 5.27953 4.40039 7.47953 4.40039C9.28353 4.40039 10.2955 5.41239 10.9995 6.20439C11.7035 5.41239 12.7155 4.40039 14.5195 4.40039C16.7195 4.40039 18.4795 6.16039 18.4795 8.36039C18.4795 11.0004 16.9395 12.6284 11.2635 17.2484L10.9995 17.4684ZM7.47953 5.28039C5.76353 5.28039 4.39953 6.64439 4.39953 8.36039C4.39953 10.6044 5.80753 12.1004 10.9995 16.3244C16.1915 12.1004 17.5995 10.6044 17.5995 8.36039C17.5995 6.64439 16.2355 5.28039 14.5195 5.28039C12.9795 5.28039 12.1435 6.20439 11.4835 6.95239L10.9995 7.52439L10.5155 6.95239C9.85553 6.20439 9.01953 5.28039 7.47953 5.28039Z" fill="black" fill-opacity="0.5"/>
</svg>
