<svg width="257" height="257" viewBox="0 0 257 257" fill="none" xmlns="http://www.w3.org/2000/svg">
<g opacity="0.06">
<path d="M254.867 69.3019C253.277 66.9703 251.144 65.8044 248.467 65.8044H78.0537L65.0029 19.9486C63.8317 15.8034 62.2422 12.2628 60.2344 9.32661C58.2266 6.39046 56.0933 4.31788 53.8345 3.10887C51.5757 1.89987 49.6097 1.07947 47.9365 0.647681C46.2633 0.215894 44.5902 0 42.917 0H8.5332C6.35807 0 4.51758 0.777218 3.01172 2.33165C1.50586 3.88609 0.75293 5.87231 0.75293 8.29032C0.75293 9.67204 1.08757 11.0106 1.75684 12.3059C2.42611 13.6013 3.38818 14.5944 4.64307 15.2853C5.89795 15.9761 7.19466 16.3216 8.5332 16.3216H42.917C43.5863 16.3216 44.2137 16.4079 44.7993 16.5806C45.3849 16.7534 46.1797 17.4874 47.1836 18.7828C48.1875 20.0781 49.0241 22.0212 49.6934 24.6119L94.1162 193.009C94.4508 194.045 94.9946 195.038 95.7476 195.988C96.5005 196.938 97.3789 197.672 98.3828 198.191C99.3867 198.709 100.474 198.968 101.646 198.968H210.067C211.741 198.968 213.288 198.45 214.71 197.413C216.133 196.377 217.095 195.082 217.597 193.527L255.996 76.9446C256.833 74.1811 256.456 71.6336 254.867 69.3019ZM204.546 182.387H107.92L82.3203 82.3851H236.922L204.546 182.387ZM188.734 215.548C183.213 215.548 178.486 217.578 174.554 221.637C170.622 225.695 168.656 230.575 168.656 236.274C168.656 241.974 170.622 246.853 174.554 250.912C178.486 254.971 183.213 257 188.734 257C194.256 257 198.983 254.971 202.915 250.912C206.847 246.853 208.812 241.974 208.812 236.274C208.812 230.575 206.847 225.695 202.915 221.637C198.983 217.578 194.256 215.548 188.734 215.548ZM116.453 215.548C112.772 215.548 109.384 216.498 106.289 218.398C103.193 220.298 100.767 222.802 99.0103 225.911C97.2534 229.02 96.375 232.474 96.375 236.274C96.375 241.974 98.341 246.853 102.273 250.912C106.205 254.971 110.932 257 116.453 257C121.975 257 126.701 254.971 130.633 250.912C134.565 246.853 136.531 241.974 136.531 236.274C136.531 234.892 136.406 233.511 136.155 232.129C135.904 230.747 135.527 229.452 135.025 228.243C134.523 227.034 133.896 225.868 133.143 224.745C132.39 223.623 131.554 222.587 130.633 221.637C129.713 220.687 128.709 219.823 127.622 219.046C126.534 218.269 125.405 217.621 124.233 217.103C123.062 216.585 121.807 216.196 120.469 215.937C119.13 215.678 117.792 215.548 116.453 215.548Z" fill="black"/>
</g>
</svg>
